<?xml version="1.0" encoding="utf-8"?>
<!-- Generator: Adobe Illustrator 28.3.0, SVG Export Plug-In . SVG Version: 6.00 Build 0)  -->
<svg version="1.1" id="_图层_2" xmlns="http://www.w3.org/2000/svg" xmlns:xlink="http://www.w3.org/1999/xlink" x="0px" y="0px"
	 viewBox="0 0 128 128" style="enable-background:new 0 0 128 128;" xml:space="preserve">
<style type="text/css">
	.st0{fill:#16A085;}
	.st1{fill:#E7E7E7;}
	.st2{fill:#1ABC9C;}
	.st3{fill:#20D9B5;}
	.st4{fill:#C0392B;}
	.st5{fill:#E74C3C;}
	.st6{fill:#F86657;}
	.st7{fill:#F86556;}
	.st8{fill:#2980B9;}
	.st9{fill:#3498DB;}
	.st10{fill:#49B2FA;}
	.st11{fill:#48B2FA;}
</style>
<g id="_图层_1-2">
	<g>
		<path class="st0" d="M7.6,92V34.7L64,0l2.2,1.2v59.5L9.8,93.3L7.6,92z"/>
		<path class="st1" d="M72,12.5L18.5,43.4l-9.2-5.3L64,6.5C64.2,9,67.6,11.3,72,12.5L72,12.5z"/>
		<path class="st2" d="M48,87.6l-22.5,13c-5.4,3.1-11.7,0.1-13.5-1.1c0.8,0.4,1.2,0.4,0.2-0.1c-0.9-0.5-0.9-0.3-0.2,0.1
			c-1.4-0.7-4.2-2.6-4.2-4.7l-0.2,0V34.2l0.2,0.1c0.2,2,2.8,3.8,4.2,4.5c1.5,1,5.9,3.1,10.4,2.2l0.5,0.2v43.2l9.9-5.7
			c3.1-1.8,7.9-1.9,10.7-0.3l5.1,2.9C51.3,83,51.1,85.8,48,87.6L48,87.6z M12.1,38.7c1,0.5,0.6,0.5-0.2,0.1
			C11.2,38.3,11.2,38.1,12.1,38.7z"/>
		<path class="st0" d="M22.8,39L77.2,7.6l2,1.1v60.7l-56.4,32.2V39z"/>
		<path class="st3" d="M22.8,41.2l-2.3-1.3l3-1.7h0L76.8,7.4l2.3,1.3L22.8,41.2z M29.1,22.4c-0.1,0.1-0.3,0.1-0.5,0.2l-16,9.2
			c-0.1,0-0.1,0.1-0.1,0.1l-1.9-1.1L64,0l2,1.2C66,1.2,29.1,22.5,29.1,22.4z"/>
		<path class="st3" d="M10.1,31l2.9-1.7l2,1.1l-2.4,1.4c-3.8,2.2-0.2,4.8,1.2,5.5c1.3,0.9,5.8,3,9.6,0.8l2.4-1.4l2.5,1.4l-2.9,1.7
			C20,43,13.7,40,11.9,38.8c0.8,0.4,1.2,0.5,0.2-0.1c-0.9-0.5-0.9-0.3-0.2,0.1C9.9,37.7,4.7,34.1,10.1,31L10.1,31L10.1,31z
			 M13.9,37.2c0.8,0.4,0.5,0.4,0,0.2C13.4,37,13.3,36.9,13.9,37.2z"/>
		<path class="st4" d="M27.1,105V47.7L83.5,13l2.2,1.2v59.5l-56.4,32.5L27.1,105z"/>
		<path class="st1" d="M91.6,25.5L38,56.4l-9.2-5.3l54.7-31.6C83.7,22,87.1,24.3,91.6,25.5L91.6,25.5L91.6,25.5z"/>
		<path class="st5" d="M67.5,100.6l-22.5,13c-5.4,3.1-11.7,0.1-13.5-1.1c0.8,0.4,1.1,0.4,0.2-0.1c-0.9-0.6-0.9-0.3-0.2,0.1
			c-1.4-0.7-4.2-2.6-4.2-4.8l-0.2,0V47.2l0.1,0.1c0.1,2,2.8,3.8,4.2,4.5c1.5,1,5.9,3.1,10.4,2.2l0.5,0.2v43.2l9.9-5.7
			c3.1-1.8,7.9-1.9,10.7-0.3l5.1,2.9C70.8,96,70.6,98.8,67.5,100.6L67.5,100.6L67.5,100.6z M31.7,51.7c1,0.5,0.6,0.5-0.2,0.1
			C30.8,51.4,30.7,51.2,31.7,51.7z"/>
		<path class="st4" d="M42.3,52.1l54.5-31.4l1.9,1.1v60.7l-56.4,32.2V52.1z"/>
		<path class="st6" d="M42.3,54.2L40,52.9l3-1.7h0l6-3.5l47.3-27.3l2.3,1.3L42.3,54.2z M48.7,35.5c-0.2,0.1-0.3,0.1-0.5,0.2l-16,9.2
			c0,0-0.1,0.1-0.1,0.1l-2-1.1L83.5,13l2,1.2L48.7,35.5z"/>
		<path class="st7" d="M29.7,44l2.9-1.7l2,1.2l-2.4,1.4c-3.8,2.2-0.1,4.8,1.2,5.5c1.4,0.9,5.8,3,9.6,0.8l2.4-1.4l2.5,1.4L45,52.9
			c-5.4,3.1-11.7,0.1-13.5-1c0.8,0.4,1.1,0.4,0.2-0.1c-0.9-0.5-0.9-0.3-0.2,0.1C29.4,50.8,24.2,47.2,29.7,44L29.7,44z M33.4,50.2
			c0.7,0.4,0.5,0.4,0,0.2C32.9,50,32.8,49.9,33.4,50.2z"/>
		<path class="st8" d="M48.8,118.1V60.7L105.2,26l2.2,1.2v59.5L51,119.3L48.8,118.1z"/>
		<path class="st1" d="M113.3,38.5L59.7,69.4l-9.2-5.3l54.7-31.6C105.4,35,108.8,37.3,113.3,38.5L113.3,38.5z"/>
		<path class="st9" d="M89.2,113.6l-22.5,13c-5.4,3.1-11.7,0.1-13.5-1.1c0.8,0.4,1.2,0.4,0.2-0.1c-0.9-0.5-0.9-0.3-0.2,0.1
			c-1.4-0.7-4.2-2.6-4.2-4.7l-0.2,0V60.2l0.2,0.1c0.2,2,2.8,3.8,4.2,4.5c1.5,1,5.9,3.1,10.4,2.2l0.5,0.2v43.2l9.9-5.7
			c3.1-1.8,7.9-1.9,10.7-0.3l5.1,2.9C92.5,109,92.3,111.8,89.2,113.6L89.2,113.6L89.2,113.6z M53.3,64.7c1,0.6,0.6,0.5-0.2,0.1
			C52.5,64.4,52.4,64.2,53.3,64.7z"/>
		<path class="st8" d="M64,126V65.1l54.4-31.4l1.9,1.1v60.7L65.8,127C65.8,127,64,126,64,126z"/>
		<path class="st10" d="M64,67.2l-2.3-1.3l3-1.7l0.4-0.2L118,33.4l2.3,1.3C120.3,34.8,64,67.2,64,67.2z M70.3,48.5
			c-0.2,0.1-0.3,0.1-0.5,0.2l-16,9.2c0,0-0.1,0.1-0.1,0.1l-2-1.1L105.2,26l2,1.2L70.3,48.5L70.3,48.5L70.3,48.5z"/>
		<path class="st11" d="M51.3,57.1l2.9-1.7l2,1.2l-2.4,1.4c-3.8,2.2-0.2,4.8,1.2,5.5c1.3,0.9,5.8,3,9.6,0.8l2.4-1.4l2.5,1.4
			l-2.9,1.7C61.2,69,55,66,53.2,64.8c0.8,0.4,1.2,0.4,0.2-0.1c-0.9-0.5-0.9-0.3-0.2,0.1C51.1,63.8,45.9,60.2,51.3,57.1L51.3,57.1
			L51.3,57.1z M55.1,63.2c0.8,0.4,0.5,0.4,0,0.2C54.6,63,54.5,62.9,55.1,63.2z"/>
	</g>
</g>
</svg>
