<?xml version="1.0" encoding="UTF-8"?>
<svg id="_图层_2" data-name=" 图层 2" xmlns="http://www.w3.org/2000/svg" version="1.1" viewBox="0 0 158.9 169">
  <defs>
    <style>
      .cls-1 {
        fill: #1e1e1f;
      }

      .cls-1, .cls-2, .cls-3 {
        stroke-width: 0px;
      }

      .cls-2 {
        fill: #fdfdfc;
      }

      .cls-3 {
        fill: #070604;
      }
    </style>
  </defs>
  <path class="cls-2" d="M78.9,5.6c.7,0,3.2,0,3.9,0,4,.5,65.9,25.2,76.1,28.6q-.1,50.4-.3,100.7c-9.9,3.6-72.3,28.2-76.3,28.6-.7,0-2.4,0-3.1,0-4.1-.4-66.5-25.4-76.1-29.1l.3-100.5C13.2,30.5,74.9,6.1,78.9,5.6Z"/>
  <path class="cls-3" d="M151.2,47.8q0,41,.1,82.1-33.3,12.7-66.7,25.4-.2-40.5-.4-81c22-9.6,44.7-17.5,66.9-26.5Z"/>
  <path class="cls-1" d="M10.8,47.8q33.2,13.1,66.4,26.2v81.3q-33.3-12.9-66.5-25.7,0-40.9.1-81.8Z"/>
  <path class="cls-3" d="M80.1,67.2l.3-54.5c1.5-.2,1.8.2,3.3.5q34.4,13.1,68.8,26.2c-23.5,9.9-47.4,18.6-71.1,28.1l-1.2-.3Z"/>
  <path class="cls-1" d="M80.4,12.6l-.3,54.5q-35.1-14-70.2-28.1c9.2-3.1,66.7-26,70.5-26.5Z"/>
</svg>