<?xml version="1.0" encoding="UTF-8"?>
<svg id="_图层_2" data-name="图层 2" xmlns="http://www.w3.org/2000/svg" xmlns:xlink="http://www.w3.org/1999/xlink" viewBox="0 0 69.5 69.5">
  <defs>
    <style>
      .cls-1 {
        fill: url(#_未命名的渐变_758-2);
      }

      .cls-1, .cls-2, .cls-3 {
        stroke-width: 0px;
      }

      .cls-2 {
        fill: url(#_未命名的渐变_758);
      }

      .cls-3 {
        fill: url(#_未命名的渐变_758-3);
      }
    </style>
    <linearGradient id="_未命名的渐变_758" data-name="未命名的渐变 758" x1="53.87" y1="25.45" x2="4.08" y2="24.2" gradientTransform="translate(81.12 18.49) rotate(115.68)" gradientUnits="userSpaceOnUse">
      <stop offset="0" stop-color="#4f00d0"/>
      <stop offset=".99" stop-color="#5c6bff"/>
    </linearGradient>
    <linearGradient id="_未命名的渐变_758-2" data-name="未命名的渐变 758" x1="23.67" y1="31.84" x2="69.51" y2="31.84" xlink:href="#_未命名的渐变_758"/>
    <linearGradient id="_未命名的渐变_758-3" data-name="未命名的渐变 758" x1="23.26" y1="21.46" x2="40.52" y2="60.24" xlink:href="#_未命名的渐变_758"/>
  </defs>
  <g id="_图层_2-2" data-name="图层 2">
    <path class="cls-2" d="m20.75,43.32c0-.98.06-1.94.19-2.88,3.81,2.97,8.59,4.73,13.79,4.74,5.19,0,9.99-1.74,13.81-4.69,4.64-3.56,7.84-8.89,8.63-14.97.13-.94.19-1.91.19-2.88C57.38,10.37,47.63.38,35.46.01c8.68.17,17.3,3.57,23.9,10.21,13.4,13.45,13.51,35.13.35,48.7-.14.15-.29.29-.43.44-.04.03-.08.07-.11.11-.18.19-.38.37-.57.54-4.03,3.7-9.41,5.95-15.3,5.94-3.04,0-5.95-.62-8.59-1.71-8.21-3.4-13.97-11.48-13.96-20.91Z"/>
    <path class="cls-1" d="m10.14,59.28c-.23-.23-.45-.47-.67-.7-8.12-8.88-7.88-22.66.73-31.24.69-.69,1.42-1.32,2.17-1.9,6.49-5.01,15.08-6,22.4-2.97-7.36,3.02-12.77,9.81-13.82,17.98-.13.94-.19,1.91-.19,2.88-.02,9.43,5.75,17.52,13.96,20.91,2.64,1.09,5.55,1.7,8.59,1.71,5.89.01,11.27-2.24,15.3-5.94-13.63,12.89-35.14,12.64-48.46-.73Z"/>
    <path class="cls-3" d="m9.46,58.58C-3.41,44.94-3.14,23.45,10.22,10.14,16.8,3.58,25.35.2,33.96.01c.02,0,.03,0,.05,0,.23,0,.45-.01.68-.01.04,0,.08,0,.13,0,.22,0,.44,0,.65.01,12.17.36,21.92,10.36,21.9,22.61,0,.98-.06,1.94-.19,2.88-.78,6.09-3.99,11.41-8.63,14.97-.6-4.78-2.74-9.41-6.4-13.1-2.18-2.18-4.69-3.83-7.38-4.93-7.32-3.03-15.91-2.04-22.4,2.97-.76.58-1.48,1.21-2.17,1.9-8.6,8.58-8.85,22.36-.73,31.24Z"/>
  </g>
</svg>