<?xml version="1.0" encoding="UTF-8"?><svg id="_图层_2" xmlns="http://www.w3.org/2000/svg" width="167.83" height="129.16" xmlns:xlink="http://www.w3.org/1999/xlink" viewBox="0 0 167.83 129.16"><defs><style>.cls-1{fill:url(#_未命名的渐变_18);}</style><linearGradient id="_未命名的渐变_18" x1="0" y1="64.58" x2="167.83" y2="64.58" gradientUnits="userSpaceOnUse"><stop offset="0" stop-color="#f6d365"/><stop offset="1" stop-color="#fda085"/></linearGradient></defs><g id="_图层_1-2"><path class="cls-1" d="M155.42,122.16v-7h-8V26.16h13v-7h-13.96v-6.61h14.93c-.56-.96-1.01-1.72-1.46-2.48-.57-.99-1.6-1.99-1.59-2.97,.01-1.03,1.02-2.06,1.6-3.08,.45-.78,.92-1.56,1.48-2.5h-14.9c-.34-.97-.86-1.7-1.96-1.47-1.1,.24-1.23,1.12-1.22,2.1,.03,2.76,0,5.53,0,8.29,0,1.53,0,7.15,0,8.72h-27.63v-6.61h14.93c-.56-.96-1.01-1.72-1.46-2.48-.57-.99-1.6-1.99-1.59-2.97,.01-1.03,1.02-2.06,1.6-3.08,.45-.78,.92-1.56,1.48-2.5h-14.9c-.34-.97-.86-1.7-1.96-1.47-1.1,.24-1.23,1.12-1.22,2.1,.03,2.76,0,5.53,0,8.29,0,1.53,0,7.15,0,8.72h-27.63v-6.61h14.93c-.56-.96-1.01-1.72-1.46-2.48-.57-.99-1.6-1.99-1.59-2.97,.01-1.03,1.02-2.06,1.6-3.08,.45-.78,.92-1.56,1.48-2.5h-14.9c-.34-.97-.86-1.7-1.96-1.47-1.1,.24-1.23,1.12-1.22,2.1,.03,2.76,0,5.53,0,8.29,0,1.53,0,7.15,0,8.72h-27.63v-6.61h14.93c-.56-.96-1.01-1.72-1.46-2.48-.57-.99-1.6-1.99-1.59-2.97,.01-1.03,1.02-2.06,1.6-3.08,.45-.78,.92-1.56,1.48-2.5h-14.9c-.34-.97-.86-1.7-1.96-1.47-1.1,.24-1.23,1.12-1.22,2.1,.03,2.76,0,5.53,0,8.29,0,1.53,0,7.15,0,8.72H23.45v-6.61h14.93c-.56-.96-1.01-1.72-1.46-2.48-.57-.99-1.6-1.99-1.59-2.97,.01-1.03,1.02-2.06,1.6-3.08,.45-.78,.92-1.56,1.48-2.5h-14.9c-.34-.97-.86-1.7-1.96-1.47-1.1,.24-1.23,1.12-1.22,2.1,.03,2.76,0,5.53,0,8.29,0,1.53,0,7.15,0,8.72H7.42v7h13V115.16H12.42v7H0v7H167.83v-7h-12.42Zm-24-96V115.16h-11.75V26.16h11.75Zm-27.75,0V115.16h-11.75V26.16h11.75Zm-27.75,0V115.16h-11.75V26.16h11.75Zm-39.5,0h11.75V115.16h-11.75V26.16Z"/></g></svg>