<?xml version="1.0" encoding="utf-8"?>
<!-- Generator: Adobe Illustrator 28.1.0, SVG Export Plug-In . SVG Version: 6.00 Build 0)  -->
<svg version="1.1" id="_图层_2" xmlns="http://www.w3.org/2000/svg" xmlns:xlink="http://www.w3.org/1999/xlink" x="0px" y="0px"
	 width="164.7px" height="164.7px" viewBox="0 0 164.7 164.7" style="enable-background:new 0 0 164.7 164.7;" xml:space="preserve"
	>
<style type="text/css">
	.st0{fill:url(#SVGID_1_);}
	.st1{fill:url(#SVGID_00000163049801398379799790000004621344222233203617_);}
	.st2{fill:url(#SVGID_00000158709264171883229850000007250649208274426015_);}
</style>
<g id="_图层_2-2">
	
		<linearGradient id="SVGID_1_" gradientUnits="userSpaceOnUse" x1="65.1172" y1="866.2432" x2="-52.8933" y2="869.2059" gradientTransform="matrix(-0.4333 0.9012 0.9012 0.4333 -669.8815 -301.311)">
		<stop  offset="0" style="stop-color:#4F00D0"/>
		<stop  offset="0.99" style="stop-color:#5C6BFF"/>
	</linearGradient>
	<path class="st0" d="M49.2,102.7c0-2.3,0.1-4.6,0.5-6.8c9,7,20.4,11.2,32.7,11.2c12.3,0,23.7-4.1,32.7-11.1
		c11-8.4,18.6-21.1,20.5-35.5c0.3-2.2,0.5-4.5,0.5-6.8C136,24.6,112.9,0.9,84,0c20.6,0.4,41,8.5,56.6,24.2
		c31.8,31.9,32,83.3,0.8,115.4c-0.3,0.4-0.7,0.7-1,1c-0.1,0.1-0.2,0.2-0.3,0.3c-0.4,0.5-0.9,0.9-1.4,1.3
		c-9.6,8.8-22.3,14.1-36.3,14.1c-7.2,0-14.1-1.5-20.4-4.1C62.8,144.2,49.2,125,49.2,102.7L49.2,102.7z"/>
	
		<linearGradient id="SVGID_00000183221598812668167820000005007837778447316910_" gradientUnits="userSpaceOnUse" x1="-6.4564" y1="851.1011" x2="102.1663" y2="851.1011" gradientTransform="matrix(-0.4333 0.9012 0.9012 0.4333 -669.8815 -301.311)">
		<stop  offset="0" style="stop-color:#4F00D0"/>
		<stop  offset="0.99" style="stop-color:#5C6BFF"/>
	</linearGradient>
	<path style="fill:url(#SVGID_00000183221598812668167820000005007837778447316910_);" d="M24,140.5c-0.5-0.5-1.1-1.1-1.6-1.7
		c-19.2-21-18.7-53.7,1.7-74c1.6-1.6,3.4-3.1,5.1-4.5c15.4-11.9,35.7-14.2,53.1-7C65,60.4,52.1,76.5,49.7,95.9
		c-0.3,2.2-0.5,4.5-0.5,6.8c0,22.4,13.6,41.5,33.1,49.6c6.3,2.6,13.2,4,20.4,4.1c14,0,26.7-5.3,36.3-14.1
		C106.6,172.8,55.6,172.2,24,140.5L24,140.5z"/>
	
		<linearGradient id="SVGID_00000175307816065212986630000002020414747503269269_" gradientUnits="userSpaceOnUse" x1="-7.4281" y1="875.6895" x2="33.4809" y2="783.7744" gradientTransform="matrix(-0.4333 0.9012 0.9012 0.4333 -669.8815 -301.311)">
		<stop  offset="0" style="stop-color:#4F00D0"/>
		<stop  offset="0.99" style="stop-color:#5C6BFF"/>
	</linearGradient>
	<path style="fill:url(#SVGID_00000175307816065212986630000002020414747503269269_);" d="M22.4,138.8C-8.1,106.5-7.4,55.6,24.2,24
		C39.8,8.5,60.1,0.5,80.5,0c0,0,0.1,0,0.1,0c0.5,0,1.1,0,1.6,0c0.1,0,0.2,0,0.3,0c0.5,0,1,0,1.5,0c28.8,0.9,52,24.6,51.9,53.6
		c0,2.3-0.1,4.6-0.5,6.8c-1.8,14.4-9.5,27-20.5,35.5c-1.4-11.3-6.5-22.3-15.2-31c-5.2-5.2-11.1-9.1-17.5-11.7
		c-17.3-7.2-37.7-4.8-53.1,7c-1.8,1.4-3.5,2.9-5.1,4.5C3.8,85.1,3.2,117.7,22.4,138.8L22.4,138.8z"/>
</g>
</svg>
